<svg xmlns="http://www.w3.org/2000/svg" width="69" height="69" viewBox="0 0 69 69" fill="none">
    <g clip-path="url(#clip0_288_47647)">
        <path d="M0 34.4988C0 15.4454 15.446 0 34.4995 0C53.553 0 69 15.4454 69 34.4988C69 53.5523 53.554 69 34.4995 69C15.445 69 0 53.5526 0 34.4988Z" fill="#FFD900"/>
        <path d="M1.6582 34.4972C1.6582 16.3597 16.3622 1.65625 34.4998 1.65625C52.6374 1.65625 67.342 16.3597 67.342 34.4972C67.342 52.6348 52.6381 67.3399 34.4998 67.3399C16.3615 67.3399 1.6582 52.6355 1.6582 34.4972Z" fill="black"/>
        <path d="M3.48242 34.4976C3.48242 17.3672 17.3697 3.48047 34.5001 3.48047C51.6304 3.48047 65.5187 17.3672 65.5187 34.4976C65.5187 51.628 51.6315 65.5167 34.5001 65.5167C17.3687 65.5167 3.48242 51.6287 3.48242 34.4976Z" fill="#FFD900"/>
        <path fill-rule="evenodd" clip-rule="evenodd" d="M39.575 60.9307C37.2849 60.9307 35.6174 59.1961 35.6174 57.216C35.6174 56.9271 35.5964 56.7987 35.61 56.5912H37.7711C38.3967 56.5912 38.2962 57.4388 38.2962 57.4388C38.2962 58.0918 39.0025 58.3876 39.5343 58.4019C40.1809 58.4198 40.7083 57.8239 40.7083 57.1712L40.6988 55.9063C40.2855 56.1307 39.4657 56.126 39.4657 56.126C37.5083 56.0727 35.5957 54.384 35.5957 52.2955V51.3651C35.5957 49.2767 37.3772 47.6328 39.4657 47.6328H39.5513C41.6401 47.6328 43.2617 49.3242 43.2617 51.4133V57.1183C43.2617 59.2674 41.74 60.9083 39.575 60.9307Z" fill="black"/>
        <path d="M39.4884 50.3282H39.5251C40.1775 50.3282 40.7072 50.8578 40.7072 51.5102V52.2586C40.7072 52.911 40.1775 53.4407 39.5251 53.4407H39.4884C38.8362 53.4407 38.3066 52.9112 38.3066 52.259V51.5099C38.3066 50.8576 38.8362 50.3282 39.4884 50.3282Z" fill="#FFD500"/>
        <path fill-rule="evenodd" clip-rule="evenodd" d="M15.9076 42.5684V36.5178H19.4346C22.353 36.5178 23.3949 41.8179 19.6016 42.5684H15.9076ZM15.9076 31.9097V26.1349H19.893C22.478 26.1349 23.0084 31.1158 20.0486 31.9097H15.9076ZM11.1543 21.3438V47.0977L19.2678 47.1059C25.8135 47.1059 29.1371 39.1638 24.5855 34.2684C24.5855 34.2684 24.5719 34.2542 24.5719 34.2301C24.5719 34.206 24.6045 34.1808 24.6045 34.1808C28.3865 29.9086 26.8024 22.4046 19.768 21.3438H11.1543Z" fill="black"/>
        <path fill-rule="evenodd" clip-rule="evenodd" d="M49.4222 42.5684V36.5178H52.9252C55.8436 36.5178 56.8862 41.8179 53.0922 42.5684H49.4222ZM49.4222 31.9097V26.1349H53.3839C55.9686 26.1349 56.499 31.1158 53.5391 31.9097H49.4222ZM44.6445 21.3438V47.0977L52.7584 47.1059C59.304 47.1059 62.6276 39.1638 58.0761 34.2684C58.0761 34.2684 58.0622 34.2542 58.0622 34.2301C58.0622 34.206 58.0951 34.1808 58.0951 34.1808C61.8771 29.9086 60.2929 22.4046 53.2586 21.3438H44.6445Z" fill="black"/>
        <path fill-rule="evenodd" clip-rule="evenodd" d="M29.4168 47.6484H29.5024C31.5909 47.6484 33.2834 49.3416 33.2834 51.4306V57.141C33.2834 59.2304 31.5909 60.9242 29.5024 60.9242H29.4168C27.3283 60.9242 25.6348 59.2304 25.6348 57.141V51.4306C25.6348 49.3415 27.3283 47.6484 29.4168 47.6484Z" fill="black"/>
        <path d="M29.4419 50.3633H29.4796C30.1318 50.3633 30.6614 50.8928 30.6614 51.545V57.2143C30.6614 57.8667 30.1317 58.3964 29.4792 58.3964H29.4415C28.7893 58.3964 28.2598 57.8669 28.2598 57.2146V51.5453C28.2598 50.8929 28.7895 50.3633 29.4419 50.3633Z" fill="#FFD500"/>
        <path fill-rule="evenodd" clip-rule="evenodd" d="M24.2188 8.48047L32.6576 34.5896H36.3086L44.6466 8.48047H39.5398L34.4744 25.907L29.4431 8.48047H24.2188Z" fill="black"/>
    </g>
    <defs>
        <clipPath id="clip0_288_47647">
            <rect width="69" height="69" fill="white"/>
        </clipPath>
    </defs>
</svg>